<?xml version="1.0" encoding="utf-8"?>
<!-- Generator: Adobe Illustrator 22.1.0, SVG Export Plug-In . SVG Version: 6.00 Build 0)  -->
<svg version="1.1" id="Layer_1" xmlns="http://www.w3.org/2000/svg" xmlns:xlink="http://www.w3.org/1999/xlink" x="0px" y="0px"
	 viewBox="0 0 89 69" style="enable-background:new 0 0 89 69;" xml:space="preserve">
<g id="Group_27" transform="translate(-714 -435)">
	<g id="Group_2" transform="translate(743.864 444.218)">
		<g id="Group_1">
			<path id="Path_2" d="M1.9,39.2c-0.1-5.3-0.3-10.6-0.1-15.9C1.9,18.5,2,13.2,3.3,8.5c1.1-3.9,3.9-7.6,8.4-6.6
				c5.3,1.2,5.4,7.2,6,11.5c1.3,10.4,1.8,20.8,1.5,31.2c0,1.4,0.2,3.2-0.8,4.2c-0.7,0.7-1.7,1.1-2.7,1.2c-2,0.2-5.1,0.3-5.9-1.8
				c-0.8-2-0.6-4.7-0.8-6.8c-0.2-2.9-0.3-5.9-0.4-8.8c-0.1-2.9-0.1-5.9-0.1-8.8c-0.1-1.3,0-2.5,0.3-3.8c0.3-0.8,1.1-1.9,2.2-1.3
				c0.7,0.3,0.9,1.3,1,2c0.5,2.8,0.7,5.7,0.7,8.5c0.1,3.2,0.2,6.3,0.1,9.5c0,0.5,0.4,0.8,0.9,0.8c0.5,0,0.8-0.4,0.8-0.8
				c0-3.5,0-7-0.2-10.6c-0.1-2.8,0.1-6.2-0.9-8.8c-0.6-1.6-2-2.9-3.9-2.4c-2.3,0.7-2.7,3.2-2.8,5.2C6.4,29.1,6.7,36,7.2,42.8
				c0.2,2.3,0,5.4,1.5,7.4c1.3,1.7,3.9,1.7,5.9,1.7c1.9,0,3.9-0.5,5.1-2.1c1.6-2.1,1.1-5.7,1.1-8.2c0.1-6.9-0.2-13.7-0.8-20.6
				c-0.3-3.3-0.7-6.6-1.1-9.9c-0.3-2.6-0.5-5.4-2.1-7.7C14.4-0.1,9.6-1,5.9,1.3c-4.6,3.2-5,9.8-5.4,14.8c-0.5,7.7-0.6,15.4-0.3,23.1
				C0.2,40.3,1.9,40.3,1.9,39.2z"/>
		</g>
	</g>
</g>
</svg>
