<?xml version="1.0" encoding="utf-8"?>
<!-- Generator: Adobe Illustrator 22.1.0, SVG Export Plug-In . SVG Version: 6.00 Build 0)  -->
<svg version="1.1" id="Layer_1" xmlns="http://www.w3.org/2000/svg" xmlns:xlink="http://www.w3.org/1999/xlink" x="0px" y="0px"
	 viewBox="0 0 89 69" style="enable-background:new 0 0 89 69;" xml:space="preserve">
<g id="Group_28" transform="translate(-856 -435)">
	<g id="Group_4" transform="translate(874.933 445.248)">
		<g id="Group_3">
			<path id="Path_3" d="M1.8,49.7c0.4-4,2.2-7.7,4-11.2c1.7-3.3,3.5-6.7,5-10.1c3-6.7,6.3-13.8,7.1-21.1c0.2-2,1-6.6-1.8-7.3
				c-2.5-0.6-4.3,2.4-5.4,4.1C9,6.7,7.6,9.8,7.9,13c0.3,3.4,2.6,6.5,4.3,9.3c4.7,8,9.3,16,14,24c0.3,0.4,0.8,0.6,1.3,0.3
				c0.1-0.1,0.2-0.2,0.3-0.3c4-6.6,8.1-13.2,12.1-19.8c2.9-4.8,8.2-11.2,6.3-17.2C44.7,4.9,39.3,2,35.7,6c-4.5,5-0.4,12.1,1.7,17.2
				c3.4,8,6.7,16.1,10.1,24.1c0.4,1.1,2.3,0.6,1.8-0.5c-2.4-5.7-4.8-11.4-7.2-17.1c-1.2-2.9-2.4-5.8-3.6-8.7
				c-1.2-2.8-2.7-5.8-2.9-8.9c-0.1-2.5,1-5.7,3.8-6.2c2.8-0.5,5,2.4,5.4,4.9c0.5,3-1,6-2.5,8.5c-1.5,2.6-3.1,5.1-4.6,7.6L26.2,45.4
				h1.6c-3.4-5.9-6.9-11.8-10.3-17.7c-1.8-3-3.6-6.1-5.3-9.2c-1.7-3-3-5.7-2-9.2c0.5-1.5,3.5-8.3,5.6-7.2c1,0.6,0.5,3.7,0.4,4.8
				c-0.2,1.8-0.5,3.5-1,5.2c-1.9,6.5-4.4,12.8-7.5,18.8c-3,6.1-7,11.9-7.7,18.8C-0.2,50.9,1.7,50.9,1.8,49.7L1.8,49.7z"/>
		</g>
	</g>
</g>
</svg>
