<?xml version="1.0" encoding="utf-8"?>
<!-- Generator: Adobe Illustrator 22.1.0, SVG Export Plug-In . SVG Version: 6.00 Build 0)  -->
<svg version="1.1" id="Layer_1" xmlns="http://www.w3.org/2000/svg" xmlns:xlink="http://www.w3.org/1999/xlink" x="0px" y="0px"
	 viewBox="0 0 89 69" style="enable-background:new 0 0 89 69;" xml:space="preserve">
<g id="Group_29" transform="translate(-998 -435)">
	<g id="Group_6" transform="translate(1023.507 439.943)">
		<g id="Group_5">
			<path id="Path_4" d="M15.6,32.6c-3.5-1.4-7.5,0.3-9,3.8c-1.1,3.6,0.9,7.5,4.5,8.7c0.1,0,0.3,0.1,0.4,0.1c5.6,1.2,6-5.2,6.5-9.1
				c0.8-6.1,1-12.2,0.5-18.4c-0.2-2.8-0.6-5.6-1.1-8.4c-0.4-2.3-0.9-5-2.7-6.8C11.8-0.4,5.6,0.7,2.5,2.6C-2.1,5.4,1,11.5,1.7,15.5
				C2.6,21.8,3,28.2,3.1,34.6c0.1,3,0.2,6,0.3,9c0.1,2.8,0,6,0.8,8.7c0.6,1.9,2,2.6,3.9,2.9c3.3,0.4,6.6,0.6,9.9,0.7
				c3.1,0.1,6.2,0.1,9.2,0c2.4-0.1,5.9,0.3,8-1.2c1.6-1.1,1.9-3,2-4.8c0.3-3.3,0.2-6.6,0.1-9.8c-0.1-6.2-0.6-12.4-1.4-18.6
				c-0.4-3-0.9-6.1-1.5-9.1c-0.6-2.9-0.9-6.1-2.2-8.8c-1.8-3.6-6-4.3-9.4-2.6c-4.1,2-5.3,6.9-4.9,11.1c0.4,3,1.1,5.9,2.1,8.7
				c1,3.3,1.5,6.8,1.4,10.3c0.1,5,0.6,11.3,5.6,14c1.5,0.8,4,1.5,5-0.4s0.6-5.4,0.3-7.5c-0.8-4.3-5.1-8.4-9.6-6
				c-1.2,0.7-0.1,2.5,1.1,1.9c1.9-1,4.2,0.1,5.3,1.8c1.2,1.8,1.3,4.1,1.2,6.2c0,0.7,0.2,2-0.5,2.4c-0.8,0.5-2-0.3-2.6-0.9
				c-1.5-1.3-2.5-3-3-4.8c-1.2-4-0.4-8.3-1-12.4c-0.6-4-2.3-7.7-3-11.7C19.6,10,19.8,5.1,23.4,3c1.4-0.8,3-1.1,4.5-0.7
				c2.3,0.7,2.8,3.1,3.3,5.2c2,8.7,3.3,17.7,3.7,26.6c0.3,4.4,0.3,8.9,0.2,13.4c0,2.2,0.2,5.1-2.5,5.8c-2.2,0.3-4.4,0.5-6.7,0.4
				c-4.3,0.1-8.7,0-13-0.3c-2.2-0.1-5.9,0.3-6.7-2.3c-0.7-2-0.5-4.7-0.6-6.8c-0.5-8.5-0.3-17-1.3-25.5c-0.2-1.8-0.5-3.7-0.8-5.5
				C3.1,11.3,2,9,2.1,6.9C2.3,3,10.9,1.8,13.2,4c1.7,1.6,1.9,4.6,2.3,6.7c0.4,2.5,0.7,5,1,7.5c0.4,4.8,0.3,9.6-0.1,14.4
				c-0.2,2.6-0.6,5.3-1.2,7.9c-0.3,1.4-0.7,2.6-2.4,2.7c-1.2,0-2.3-0.5-3-1.4c-3.5-3.8,1-8.8,5.3-7C16.3,35.3,16.9,33.2,15.6,32.6
				L15.6,32.6z"/>
		</g>
	</g>
</g>
</svg>
